<svg id="_x33_0" enable-background="new 0 0 64 64" height="512" viewBox="0 0 64 64" width="512" xmlns="http://www.w3.org/2000/svg"><g><path d="m26.031 19c.552 0 1 .449 1 1h2c0-1.654-1.346-3-3-3s-3 1.346-3 3h2c0-.551.448-1 1-1z"/><path d="m18.031 19c.552 0 1 .449 1 1h2c0-1.654-1.346-3-3-3s-3 1.346-3 3h2c0-.551.448-1 1-1z"/><path d="m26.928 24.473.052-.154-1.896-.638-.052.157c-.432 1.293-1.637 2.162-3.001 2.162s-2.569-.869-3-2.16l-.051-.154-1.898.627.052.156c.703 2.112 2.672 3.53 4.897 3.53s4.194-1.417 4.897-3.526z"/><path d="m59.211 17c-4.52 0-8.896-1.325-12.656-3.832l-.555-.37-.555.37c-2.648 1.766-5.666 2.961-8.801 3.501l.011-.044c.25-.997.376-2.023.376-3.05 0-6.934-5.641-12.575-12.575-12.575h-.578c-1.353 0-2.69.217-3.977.645l-2.395.799c-.903-.891-2.14-1.444-3.506-1.444h-2c-3.859 0-7 3.14-7 7 0 1.902.765 3.627 2 4.889v1.875c0 1.339.278 2.678.781 3.922-.468.655-.75 1.45-.75 2.314 0 2.206 1.794 4 4 4h.764c.961 2.451 2.771 4.478 5.074 5.708l-.686 3.43-7.08 1.287c-2.334.424-4.436 1.679-5.919 3.532-1.389 1.737-2.153 3.918-2.153 6.142v17.901h41.969v-11.057l3 1.125 5.32-1.995c6.986-2.62 11.68-9.393 11.68-16.854v-17.219zm-14.211 3.575v25.982l-2-.75v-.709c0-2.224-.766-4.405-2.154-6.142-1.45-1.813-3.497-3.049-5.773-3.498-.044-.415-.073-.829-.073-1.239v-9.758c.682-.39 1.235-.969 1.59-1.672 3.139-.346 5.909-1.081 8.41-2.214zm2 .029c2.911 1.315 6.204 2.089 10 2.343v11.272c0 5.057-3.202 9.79-7.786 11.508l-2.214.83zm-17.995 13.744-1.157-.21-.683-3.416c.653-.346 1.269-.753 1.836-1.218v4.716c-.001.042.004.085.004.128zm-1.789 1.708 1.183.215-1.769 4.127-2.851-2.281zm3.803-1.342c-.005-.165-.019-.329-.019-.495v-6.872c.513-.723.939-1.509 1.267-2.346h.733v9.219c0 .286.017.574.035.862zm2.012-13.714v-2c1.103 0 2 .897 2 2s-.897 2-2 2h-.191c.12-.65.191-1.316.191-2zm-21.031-18h2c1.654 0 3 1.346 3 3s-1.346 3-3 3c-.552 0-1-.449-1-1s.448-1 1-1h1v-2h-1c-1.654 0-3 1.346-3 3s1.346 3 3 3c2.757 0 5-2.243 5-5 0-.646-.133-1.26-.357-1.827l1.89-.631c1.082-.359 2.207-.542 3.345-.542h.578c5.831 0 10.575 4.744 10.575 10.575 0 .863-.106 1.726-.315 2.564l-.282 1.128c-.438-.165-.907-.267-1.403-.267v-.169c0-2.095-1.116-4.066-2.913-5.145l-1.137-.682c.018-.163.05-.323.05-.491 0-1.934-1.233-3.645-3.068-4.257l-.615-.205-.633 1.897.615.205c1.018.339 1.701 1.287 1.701 2.359 0 1.371-1.116 2.487-2.487 2.487h-12.544c-2.757 0-5-2.243-5-5s2.243-4.999 5-4.999zm-2.586 14.348c-.266-.835-.414-1.71-.414-2.584v-.449c.631.301 1.313.51 2.031.61v2.075c-.576 0-1.121.128-1.617.348zm1.617 5.652c-1.103 0-2-.897-2-2s.897-2 2-2v2c0 .684.071 1.35.191 2zm2-2v-6h11.513c1.582 0 2.967-.827 3.767-2.066l.778.467c1.198.719 1.942 2.034 1.942 3.43v4.169c0 4.962-4.037 9-9 9s-9-4.038-9-9zm9 11c1.131 0 2.223-.172 3.251-.491l.602 3.013-3.853 2.312-3.881-2.329.601-3.005c1.036.324 2.138.5 3.28.5zm-5.191 4.051 3.444 2.066-2.851 2.281-1.772-4.133zm-12.093 4.155c1.181-1.476 2.855-2.476 4.714-2.813l4.182-.76 2.987 6.969 5.401-4.321 5.401 4.321 2.984-6.964 4.152.755c1.859.338 3.534 1.337 4.714 2.813 1.109 1.383 1.718 3.121 1.718 4.892v7.902h-5.99l-.01-4.002-2 .005.029 11.997h-22l-.029-12.002-2 .005.01 3.997h-5.979v-7.902c0-1.771.61-3.509 1.716-4.892zm-1.716 14.794h5.983l.014 6h-5.997zm31.998 6-.014-6h5.985v6zm25.971-26.781c0 6.632-4.172 12.653-10.383 14.981l-4.617 1.732-3-1.125v-1.864l3 1.125 3.916-1.468c5.349-2.006 9.084-7.508 9.084-13.381v-13.177l-.957-.042c-4.563-.197-8.347-1.14-11.567-2.881l-.476-.256-.476.257c-2.479 1.34-5.294 2.176-8.522 2.595-.052-.729-.286-1.409-.678-1.978 3.427-.495 6.744-1.703 9.676-3.546 3.962 2.494 8.516 3.809 13.211 3.809h1.789z"/></g></svg>