<?xml version="1.0" encoding="iso-8859-1"?>
<!-- Generator: Adobe Illustrator 19.0.0, SVG Export Plug-In . SVG Version: 6.00 Build 0)  -->
<svg version="1.1" id="Capa_1" xmlns="http://www.w3.org/2000/svg" xmlns:xlink="http://www.w3.org/1999/xlink" x="0px" y="0px"
	 viewBox="0 0 512 512" style="enable-background:new 0 0 512 512;" xml:space="preserve">
<g>
	<g>
		<path d="M457.872,40.226l-200.4-40.08c-0.973-0.194-1.975-0.194-2.947,0l-200.4,40.08c-3.513,0.702-6.041,3.786-6.041,7.369
			V336.17c0,2.22,0.981,4.327,2.681,5.755l200.4,168.336c2.761,2.32,6.907,2.32,9.667,0l200.4-168.336
			c1.699-1.428,2.681-3.534,2.681-5.755V47.594C463.914,44.012,461.385,40.928,457.872,40.226z M448.884,332.669L256,494.692
			L63.115,332.669V53.756L256,15.179l192.885,38.577V332.669z"/>
	</g>
</g>
<g>
	<g>
		<path d="M424.336,230.459c4.151,0,7.515-3.365,7.515-7.515V73.881c0-3.582-2.528-6.666-6.041-7.369L257.474,32.845
			c-0.973-0.195-1.975-0.195-2.948,0L86.19,66.512c-3.513,0.702-6.041,3.787-6.041,7.369v247.347c0,2.22,0.981,4.327,2.681,5.755
			l168.336,141.402c2.761,2.32,6.907,2.32,9.667,0l168.336-141.402c1.699-1.428,2.681-3.534,2.681-5.755v-60.876
			c0-4.15-3.364-7.515-7.515-7.515c-4.151,0-7.515,3.365-7.515,7.515v57.374L256,452.815L95.179,317.726V80.042L256,47.878
			l160.821,32.164v142.902C416.821,227.094,420.184,230.459,424.336,230.459z"/>
	</g>
</g>
<g>
	<g>
		<path d="M256,104.207c-61.604,0-111.723,50.119-111.723,111.723S194.396,327.653,256,327.653
			c61.604,0,111.723-50.119,111.723-111.723S317.604,104.207,256,104.207z M256,312.623c-53.316,0-96.693-43.377-96.693-96.693
			s43.377-96.693,96.693-96.693s96.693,43.376,96.693,96.693C352.693,269.246,309.316,312.623,256,312.623z"/>
	</g>
</g>
<g>
	<g>
		<path d="M289.467,199.397c4.151,0,7.515-3.365,7.515-7.515v-8.016c0-17.404-14.159-31.563-31.563-31.563h-0.501V135.77
			c0-4.15-3.364-7.515-7.515-7.515c-4.151,0-7.515,3.365-7.515,7.515v16.707c-17.974,1.768-32.064,16.966-32.064,35.397
			c0,19.614,15.957,35.571,35.571,35.571h8.016c11.327,0,20.541,9.214,20.541,20.541c0,11.327-9.214,20.541-20.541,20.541h-12.024
			c-9.116,0-16.533-7.417-16.533-16.533c0-4.15-3.364-7.515-7.515-7.515c-4.151,0-7.515,3.365-7.515,7.515
			c0,17.404,14.159,31.563,31.563,31.563h0.501v16.533c0,4.15,3.364,7.515,7.515,7.515c4.151,0,7.515-3.365,7.515-7.515v-16.707
			c17.974-1.768,32.064-16.966,32.064-35.397c0-19.614-15.957-35.571-35.571-35.571h-8.016c-11.327,0-20.541-9.214-20.541-20.541
			s9.214-20.541,20.541-20.541h12.024c9.116,0,16.533,7.417,16.533,16.533v8.016C281.952,196.032,285.315,199.397,289.467,199.397z"
			/>
	</g>
</g>
<g>
</g>
<g>
</g>
<g>
</g>
<g>
</g>
<g>
</g>
<g>
</g>
<g>
</g>
<g>
</g>
<g>
</g>
<g>
</g>
<g>
</g>
<g>
</g>
<g>
</g>
<g>
</g>
<g>
</g>
</svg>
